<svg width="402" height="262" viewBox="0 0 402 262" fill="none" xmlns="http://www.w3.org/2000/svg">
<path d="M126.2 102H114.665L132.24 51.0909H146.111L163.661 102H152.126L139.374 62.7244H138.977L126.2 102ZM125.479 81.9893H152.723V90.3913H125.479V81.9893ZM183.351 51.0909V102H172.588V51.0909H183.351ZM117.425 187V136.091H137.51C141.371 136.091 144.661 136.828 147.379 138.303C150.096 139.762 152.168 141.792 153.593 144.393C155.035 146.979 155.756 149.962 155.756 153.342C155.756 156.723 155.027 159.706 153.568 162.291C152.11 164.876 149.997 166.89 147.229 168.332C144.478 169.773 141.147 170.494 137.237 170.494H124.435V161.869H135.496C137.568 161.869 139.275 161.512 140.617 160.8C141.976 160.071 142.987 159.068 143.65 157.792C144.329 156.499 144.669 155.016 144.669 153.342C144.669 151.652 144.329 150.177 143.65 148.918C142.987 147.642 141.976 146.656 140.617 145.96C139.258 145.247 137.535 144.891 135.447 144.891H128.188V187H117.425ZM165.547 187V136.091H199.851V144.965H176.31V157.096H198.086V165.97H176.31V178.126H199.95V187H165.547ZM178.97 131.169L184.24 119.859H194.034L186.453 131.169H178.97ZM211.208 187V136.091H231.294C235.138 136.091 238.419 136.779 241.137 138.154C243.872 139.513 245.951 141.444 247.377 143.946C248.818 146.432 249.539 149.357 249.539 152.721C249.539 156.102 248.81 159.01 247.352 161.446C245.893 163.866 243.781 165.722 241.013 167.014C238.262 168.307 234.931 168.953 231.02 168.953H217.572V160.303H229.28C231.335 160.303 233.042 160.021 234.401 159.457C235.76 158.894 236.771 158.049 237.433 156.922C238.113 155.795 238.453 154.395 238.453 152.721C238.453 151.031 238.113 149.605 237.433 148.445C236.771 147.285 235.751 146.407 234.376 145.81C233.017 145.197 231.302 144.891 229.23 144.891H221.972V187H211.208ZM238.701 163.832L251.354 187H239.472L227.093 163.832H238.701ZM268.721 187H257.187L274.761 136.091H288.632L306.182 187H294.648L281.895 147.724H281.498L268.721 187ZM268 166.989H295.244V175.391H268V166.989Z" fill="white"/>
<path d="M126.2 102V103H126.926L127.151 102.309L126.2 102ZM114.665 102L113.72 101.674L113.262 103H114.665V102ZM132.24 51.0909V50.0909H131.527L131.295 50.7646L132.24 51.0909ZM146.111 51.0909L147.056 50.765L146.824 50.0909H146.111V51.0909ZM163.661 102V103H165.063L164.606 101.674L163.661 102ZM152.126 102L151.175 102.309L151.4 103H152.126V102ZM139.374 62.7244L140.325 62.4156L140.101 61.7244H139.374V62.7244ZM138.977 62.7244V61.7244H138.25L138.026 62.4151L138.977 62.7244ZM125.479 81.9893V80.9893H124.479V81.9893H125.479ZM152.723 81.9893H153.723V80.9893H152.723V81.9893ZM152.723 90.3913V91.3913H153.723V90.3913H152.723ZM125.479 90.3913H124.479V91.3913H125.479V90.3913ZM126.2 101H114.665V103H126.2V101ZM115.611 102.326L133.185 51.4172L131.295 50.7646L113.72 101.674L115.611 102.326ZM132.24 52.0909H146.111V50.0909H132.24V52.0909ZM145.165 51.4168L162.715 102.326L164.606 101.674L147.056 50.765L145.165 51.4168ZM163.661 101H152.126V103H163.661V101ZM153.078 101.691L140.325 62.4156L138.423 63.0332L151.175 102.309L153.078 101.691ZM139.374 61.7244H138.977V63.7244H139.374V61.7244ZM138.026 62.4151L125.249 101.691L127.151 102.309L139.928 63.0338L138.026 62.4151ZM125.479 82.9893H152.723V80.9893H125.479V82.9893ZM151.723 81.9893V90.3913H153.723V81.9893H151.723ZM152.723 89.3913H125.479V91.3913H152.723V89.3913ZM126.479 90.3913V81.9893H124.479V90.3913H126.479ZM183.351 51.0909H184.351V50.0909H183.351V51.0909ZM183.351 102V103H184.351V102H183.351ZM172.588 102H171.588V103H172.588V102ZM172.588 51.0909V50.0909H171.588V51.0909H172.588ZM182.351 51.0909V102H184.351V51.0909H182.351ZM183.351 101H172.588V103H183.351V101ZM173.588 102V51.0909H171.588V102H173.588ZM172.588 52.0909H183.351V50.0909H172.588V52.0909ZM117.425 187H116.425V188H117.425V187ZM117.425 136.091V135.091H116.425V136.091H117.425ZM147.379 138.303L146.902 139.182L146.906 139.184L147.379 138.303ZM153.593 144.393L152.716 144.874L152.72 144.881L153.593 144.393ZM147.229 168.332L146.767 167.445L146.765 167.446L147.229 168.332ZM124.435 170.494H123.435V171.494H124.435V170.494ZM124.435 161.869V160.869H123.435V161.869H124.435ZM140.617 160.8L141.086 161.683L141.09 161.681L140.617 160.8ZM143.65 157.792L142.765 157.327L142.762 157.331L143.65 157.792ZM143.65 148.918L142.762 149.379L142.766 149.386L142.77 149.392L143.65 148.918ZM140.617 145.96L140.153 146.845L140.161 146.85L140.617 145.96ZM128.188 144.891V143.891H127.188V144.891H128.188ZM128.188 187V188H129.188V187H128.188ZM118.425 187V136.091H116.425V187H118.425ZM117.425 137.091H137.51V135.091H117.425V137.091ZM137.51 137.091C141.245 137.091 144.362 137.804 146.902 139.182L147.856 137.424C144.959 135.853 141.497 135.091 137.51 135.091V137.091ZM146.906 139.184C149.46 140.555 151.388 142.449 152.716 144.874L154.47 143.913C152.948 141.134 150.733 138.968 147.851 137.422L146.906 139.184ZM152.72 144.881C154.067 147.297 154.756 150.108 154.756 153.342H156.756C156.756 149.816 156.002 146.661 154.466 143.906L152.72 144.881ZM154.756 153.342C154.756 156.575 154.06 159.384 152.697 161.8L154.439 162.783C155.993 160.028 156.756 156.871 156.756 153.342H154.756ZM152.697 161.8C151.339 164.208 149.372 166.088 146.767 167.445L147.691 169.219C150.621 167.692 152.881 165.545 154.439 162.783L152.697 161.8ZM146.765 167.446C144.19 168.796 141.027 169.494 137.237 169.494V171.494C141.268 171.494 144.767 170.751 147.694 169.217L146.765 167.446ZM137.237 169.494H124.435V171.494H137.237V169.494ZM125.435 170.494V161.869H123.435V170.494H125.435ZM124.435 162.869H135.496V160.869H124.435V162.869ZM135.496 162.869C137.675 162.869 139.557 162.495 141.086 161.683L140.148 159.916C138.993 160.53 137.461 160.869 135.496 160.869V162.869ZM141.09 161.681C142.613 160.864 143.775 159.721 144.537 158.253L142.762 157.331C142.199 158.415 141.339 159.277 140.144 159.919L141.09 161.681ZM144.535 158.257C145.3 156.801 145.669 155.154 145.669 153.342H143.669C143.669 154.878 143.358 156.197 142.765 157.327L144.535 158.257ZM145.669 153.342C145.669 151.516 145.301 149.873 144.53 148.443L142.77 149.392C143.357 150.482 143.669 151.788 143.669 153.342H145.669ZM144.537 148.457C143.773 146.984 142.605 145.854 141.073 145.069L140.161 146.85C141.347 147.457 142.201 148.299 142.762 149.379L144.537 148.457ZM141.082 145.074C139.537 144.264 137.641 143.891 135.447 143.891V145.891C137.429 145.891 138.979 146.23 140.153 146.845L141.082 145.074ZM135.447 143.891H128.188V145.891H135.447V143.891ZM127.188 144.891V187H129.188V144.891H127.188ZM128.188 186H117.425V188H128.188V186ZM165.547 187H164.547V188H165.547V187ZM165.547 136.091V135.091H164.547V136.091H165.547ZM199.851 136.091H200.851V135.091H199.851V136.091ZM199.851 144.965V145.965H200.851V144.965H199.851ZM176.31 144.965V143.965H175.31V144.965H176.31ZM176.31 157.096H175.31V158.096H176.31V157.096ZM198.086 157.096H199.086V156.096H198.086V157.096ZM198.086 165.97V166.97H199.086V165.97H198.086ZM176.31 165.97V164.97H175.31V165.97H176.31ZM176.31 178.126H175.31V179.126H176.31V178.126ZM199.95 178.126H200.95V177.126H199.95V178.126ZM199.95 187V188H200.95V187H199.95ZM178.97 131.169L178.064 130.747L177.401 132.169H178.97V131.169ZM184.24 119.859V118.859H183.603L183.334 119.436L184.24 119.859ZM194.034 119.859L194.865 120.415L195.908 118.859H194.034V119.859ZM186.453 131.169V132.169H186.986L187.283 131.726L186.453 131.169ZM166.547 187V136.091H164.547V187H166.547ZM165.547 137.091H199.851V135.091H165.547V137.091ZM198.851 136.091V144.965H200.851V136.091H198.851ZM199.851 143.965H176.31V145.965H199.851V143.965ZM175.31 144.965V157.096H177.31V144.965H175.31ZM176.31 158.096H198.086V156.096H176.31V158.096ZM197.086 157.096V165.97H199.086V157.096H197.086ZM198.086 164.97H176.31V166.97H198.086V164.97ZM175.31 165.97V178.126H177.31V165.97H175.31ZM176.31 179.126H199.95V177.126H176.31V179.126ZM198.95 178.126V187H200.95V178.126H198.95ZM199.95 186H165.547V188H199.95V186ZM179.877 131.591L185.147 120.281L183.334 119.436L178.064 130.747L179.877 131.591ZM184.24 120.859H194.034V118.859H184.24V120.859ZM193.204 119.302L185.622 130.612L187.283 131.726L194.865 120.415L193.204 119.302ZM186.453 130.169H178.97V132.169H186.453V130.169ZM211.208 187H210.208V188H211.208V187ZM211.208 136.091V135.091H210.208V136.091H211.208ZM241.137 138.154L240.686 139.046L240.692 139.05L241.137 138.154ZM247.377 143.946L246.508 144.441L246.512 144.448L247.377 143.946ZM247.352 161.446L248.208 161.962L248.21 161.96L247.352 161.446ZM241.013 167.014L240.59 166.108L240.588 166.109L241.013 167.014ZM217.572 168.953H216.572V169.953H217.572V168.953ZM217.572 160.303V159.303H216.572V160.303H217.572ZM234.401 159.457L234.784 160.381L234.784 160.381L234.401 159.457ZM237.433 156.922L236.577 156.405L236.572 156.415L237.433 156.922ZM237.433 148.445L236.565 148.941L236.571 148.951L237.433 148.445ZM234.376 145.81L233.965 146.722L233.971 146.725L233.978 146.728L234.376 145.81ZM221.972 144.891V143.891H220.972V144.891H221.972ZM221.972 187V188H222.972V187H221.972ZM238.701 163.832L239.579 163.353L239.294 162.832H238.701V163.832ZM251.354 187V188H253.039L252.232 186.521L251.354 187ZM239.472 187L238.59 187.471L238.872 188H239.472V187ZM227.093 163.832V162.832H225.424L226.211 164.304L227.093 163.832ZM212.208 187V136.091H210.208V187H212.208ZM211.208 137.091H231.294V135.091H211.208V137.091ZM231.294 137.091C235.021 137.091 238.14 137.758 240.686 139.046L241.589 137.262C238.699 135.799 235.255 135.091 231.294 135.091V137.091ZM240.692 139.05C243.26 140.326 245.187 142.122 246.508 144.441L248.246 143.451C246.716 140.765 244.483 138.7 241.582 137.259L240.692 139.05ZM246.512 144.448C247.851 146.757 248.539 149.503 248.539 152.721H250.539C250.539 149.211 249.786 146.107 248.242 143.444L246.512 144.448ZM248.539 152.721C248.539 155.955 247.843 158.679 246.494 160.932L248.21 161.96C249.777 159.341 250.539 156.248 250.539 152.721H248.539ZM246.495 160.93C245.148 163.165 243.193 164.892 240.59 166.108L241.436 167.92C244.368 166.551 246.639 164.566 248.208 161.962L246.495 160.93ZM240.588 166.109C238.002 167.324 234.825 167.953 231.02 167.953V169.953C235.037 169.953 238.522 169.29 241.438 167.919L240.588 166.109ZM231.02 167.953H217.572V169.953H231.02V167.953ZM218.572 168.953V160.303H216.572V168.953H218.572ZM217.572 161.303H229.28V159.303H217.572V161.303ZM229.28 161.303C231.418 161.303 233.266 161.011 234.784 160.381L234.018 158.534C232.818 159.031 231.252 159.303 229.28 159.303V161.303ZM234.784 160.381C236.317 159.745 237.509 158.766 238.295 157.429L236.572 156.415C236.032 157.331 235.202 158.042 234.018 158.534L234.784 160.381ZM238.29 157.438C239.086 156.118 239.453 154.528 239.453 152.721H237.453C237.453 154.261 237.14 155.472 236.577 156.406L238.29 157.438ZM239.453 152.721C239.453 150.898 239.086 149.288 238.296 147.94L236.571 148.951C237.14 149.923 237.453 151.163 237.453 152.721H239.453ZM238.302 147.949C237.519 146.579 236.322 145.564 234.774 144.893L233.978 146.728C235.181 147.249 236.022 147.992 236.565 148.941L238.302 147.949ZM234.787 144.899C233.259 144.209 231.392 143.891 229.23 143.891V145.891C231.212 145.891 232.775 146.185 233.965 146.722L234.787 144.899ZM229.23 143.891H221.972V145.891H229.23V143.891ZM220.972 144.891V187H222.972V144.891H220.972ZM221.972 186H211.208V188H221.972V186ZM237.824 164.312L250.476 187.479L252.232 186.521L239.579 163.353L237.824 164.312ZM251.354 186H239.472V188H251.354V186ZM240.354 186.529L227.975 163.361L226.211 164.304L238.59 187.471L240.354 186.529ZM227.093 164.832H238.701V162.832H227.093V164.832ZM268.721 187V188H269.447L269.672 187.309L268.721 187ZM257.187 187L256.241 186.674L255.783 188H257.187V187ZM274.761 136.091V135.091H274.048L273.816 135.765L274.761 136.091ZM288.632 136.091L289.577 135.765L289.345 135.091H288.632V136.091ZM306.182 187V188H307.584L307.127 186.674L306.182 187ZM294.648 187L293.696 187.309L293.921 188H294.648V187ZM281.895 147.724L282.847 147.416L282.622 146.724H281.895V147.724ZM281.498 147.724V146.724H280.771L280.547 147.415L281.498 147.724ZM268 166.989V165.989H267V166.989H268ZM295.244 166.989H296.244V165.989H295.244V166.989ZM295.244 175.391V176.391H296.244V175.391H295.244ZM268 175.391H267V176.391H268V175.391ZM268.721 186H257.187V188H268.721V186ZM258.132 187.326L275.706 136.417L273.816 135.765L256.241 186.674L258.132 187.326ZM274.761 137.091H288.632V135.091H274.761V137.091ZM287.686 136.417L305.236 187.326L307.127 186.674L289.577 135.765L287.686 136.417ZM306.182 186H294.648V188H306.182V186ZM295.599 186.691L282.847 147.416L280.944 148.033L293.696 187.309L295.599 186.691ZM281.895 146.724H281.498V148.724H281.895V146.724ZM280.547 147.415L267.77 186.691L269.672 187.309L282.449 148.034L280.547 147.415ZM268 167.989H295.244V165.989H268V167.989ZM294.244 166.989V175.391H296.244V166.989H294.244ZM295.244 174.391H268V176.391H295.244V174.391ZM269 175.391V166.989H267V175.391H269Z" fill="white"/>
<path d="M18.9757 250.704C18.9757 256.184 14.8805 260.493 9.98787 260.493C5.09523 260.493 1 256.184 1 250.704C1 245.224 5.09523 240.915 9.98787 240.915C14.8805 240.915 18.9757 245.224 18.9757 250.704Z" stroke="#3CCED4" stroke-width="2"/>
<path d="M22.4721 166.013C22.4721 169.646 19.7537 172.525 16.48 172.525C13.2063 172.525 10.4879 169.646 10.4879 166.013C10.4879 162.379 13.2063 159.5 16.48 159.5C19.7537 159.5 22.4721 162.379 22.4721 166.013Z" stroke="#3CCED4"/>
<path d="M29.4636 233.442C29.4636 236.182 27.416 238.336 24.9697 238.336C22.5234 238.336 20.4757 236.182 20.4757 233.442C20.4757 230.702 22.5234 228.548 24.9697 228.548C27.416 228.548 29.4636 230.702 29.4636 233.442Z" stroke="#3CCED4"/>
<path d="M9.48787 206.47C9.48787 209.21 7.44025 211.365 4.99394 211.365C2.54762 211.365 0.5 209.21 0.5 206.47C0.5 203.73 2.54762 201.576 4.99394 201.576C7.44025 201.576 9.48787 203.73 9.48787 206.47Z" stroke="#3CCED4"/>
<path d="M58.4284 214.562C58.4284 215.812 57.4988 216.759 56.4315 216.759C55.3642 216.759 54.4345 215.812 54.4345 214.562C54.4345 213.311 55.3642 212.365 56.4315 212.365C57.4988 212.365 58.4284 213.311 58.4284 214.562Z" stroke="#3CCED4"/>
<path d="M43.9454 201.076C43.9454 207.152 39.403 211.943 33.9588 211.943C28.5145 211.943 23.9721 207.152 23.9721 201.076C23.9721 195 28.5145 190.208 33.9588 190.208C39.403 190.208 43.9454 195 43.9454 201.076Z" stroke="#3CCED4" stroke-width="2"/>
<path d="M361.976 91.704C361.976 97.1841 357.881 101.493 352.988 101.493C348.095 101.493 344 97.1841 344 91.704C344 86.2238 348.095 81.9153 352.988 81.9153C357.881 81.9153 361.976 86.2238 361.976 91.704Z" stroke="#3CCED4" stroke-width="2"/>
<path d="M365.472 7.01265C365.472 10.6465 362.754 13.5253 359.48 13.5253C356.206 13.5253 353.488 10.6465 353.488 7.01265C353.488 3.3788 356.206 0.5 359.48 0.5C362.754 0.5 365.472 3.3788 365.472 7.01265Z" stroke="#3CCED4"/>
<path d="M372.464 74.442C372.464 77.182 370.416 79.3363 367.97 79.3363C365.523 79.3363 363.476 77.182 363.476 74.442C363.476 71.7019 365.523 69.5476 367.97 69.5476C370.416 69.5476 372.464 71.7019 372.464 74.442Z" stroke="#3CCED4"/>
<path d="M352.488 47.4703C352.488 50.2104 350.44 52.3646 347.994 52.3646C345.548 52.3646 343.5 50.2104 343.5 47.4703C343.5 44.7302 345.548 42.5759 347.994 42.5759C350.44 42.5759 352.488 44.7302 352.488 47.4703Z" stroke="#3CCED4"/>
<path d="M401.428 55.5617C401.428 56.8122 400.499 57.7588 399.431 57.7588C398.364 57.7588 397.435 56.8122 397.435 55.5617C397.435 54.3112 398.364 53.3645 399.431 53.3645C400.499 53.3645 401.428 54.3112 401.428 55.5617Z" stroke="#3CCED4"/>
<path d="M386.945 42.0758C386.945 48.1518 382.403 52.9434 376.959 52.9434C371.515 52.9434 366.972 48.1518 366.972 42.0758C366.972 35.9998 371.515 31.2083 376.959 31.2083C382.403 31.2083 386.945 35.9998 386.945 42.0758Z" stroke="#3CCED4" stroke-width="2"/>
</svg>
